<svg width="115" height="132" viewBox="0 0 115 132" fill="none" xmlns="http://www.w3.org/2000/svg">
<g clip-path="url(#clip0_4502_10521)">
<path d="M114.577 99.0357V33.1931L57.2925 0.275391L0.0117188 33.1931V99.0357L57.2925 131.953L114.577 99.0357Z" fill="url(#paint0_radial_4502_10521)"/>
<path d="M114.576 33.1929L99.0547 66.0748L114.576 99.0355V33.1929Z" fill="url(#paint1_radial_4502_10521)"/>
<path d="M0.0117188 99.0355L15.5331 66.1535L0.0117188 33.1929V99.0355Z" fill="url(#paint2_radial_4502_10521)"/>
<path d="M99.0559 66.0752L114.577 33.1933L57.293 0.282715L99.0559 66.0752Z" fill="url(#paint3_radial_4502_10521)"/>
<path d="M15.5331 66.1539L57.2925 0.282715L0.0117188 33.1933L15.5331 66.1539Z" fill="#3B7DBF"/>
<path d="M99.0559 66.0752L114.577 99.0359L57.293 131.871L99.0559 66.0752Z" fill="#3B7DBF"/>
<path d="M57.2925 0.275391L0.0117188 33.186L15.5331 66.1466L57.2925 0.275391Z" fill="url(#paint4_radial_4502_10521)"/>
<path d="M99.0559 66.0752L114.861 99.6905L57.293 131.871L99.0559 66.0752Z" fill="url(#paint5_radial_4502_10521)"/>
<path d="M57.2925 131.871L15.5331 66.1465L0.0117188 99.0356L57.2925 131.871Z" fill="url(#paint6_radial_4502_10521)"/>
<path d="M57.6747 72.9256C64.0081 72.9256 69.1423 67.815 69.1423 61.5107C69.1423 55.2064 64.0081 50.0957 57.6747 50.0957C51.3413 50.0957 46.207 55.2064 46.207 61.5107C46.207 67.815 51.3413 72.9256 57.6747 72.9256Z" fill="white"/>
<path d="M57.2906 131.871L99.0536 66.0752H15.5312L57.2906 131.871Z" fill="url(#paint7_radial_4502_10521)"/>
<path opacity="0.5" d="M57.3098 0.296875L15.5469 66.0894H99.0692L57.3098 0.296875Z" fill="url(#paint8_radial_4502_10521)"/>
</g>
<defs>
<radialGradient id="paint0_radial_4502_10521" cx="0" cy="0" r="1" gradientUnits="userSpaceOnUse" gradientTransform="translate(57.1487 117.548) scale(111.212 110.701)">
<stop offset="0.48" stop-color="#CCE7F0"/>
<stop offset="1" stop-color="#6DF2F2"/>
</radialGradient>
<radialGradient id="paint1_radial_4502_10521" cx="0" cy="0" r="1" gradientUnits="userSpaceOnUse" gradientTransform="translate(117.35 25.3337) scale(60.0012 59.7255)">
<stop stop-color="#3DEED7"/>
<stop offset="1" stop-color="#5CD3D1"/>
</radialGradient>
<radialGradient id="paint2_radial_4502_10521" cx="0" cy="0" r="1" gradientUnits="userSpaceOnUse" gradientTransform="translate(39.0794 57.0137) scale(44.5338 44.3291)">
<stop offset="0.48" stop-color="#34E6D2"/>
<stop offset="1" stop-color="#18CCC4"/>
</radialGradient>
<radialGradient id="paint3_radial_4502_10521" cx="0" cy="0" r="1" gradientUnits="userSpaceOnUse" gradientTransform="translate(114.103 22.7478) scale(38.7909 38.6127)">
<stop stop-color="#C9FAF8"/>
<stop offset="1" stop-color="#7EDDDE"/>
</radialGradient>
<radialGradient id="paint4_radial_4502_10521" cx="0" cy="0" r="1" gradientUnits="userSpaceOnUse" gradientTransform="translate(13.42 3.67377) scale(48.3934 48.1711)">
<stop offset="0.578125" stop-color="#CAFAF8"/>
<stop offset="1" stop-color="#7DDCDD"/>
</radialGradient>
<radialGradient id="paint5_radial_4502_10521" cx="0" cy="0" r="1" gradientUnits="userSpaceOnUse" gradientTransform="translate(79.6784 73.5015) scale(45.1483 44.9408)">
<stop offset="0.48" stop-color="#7ACCCF"/>
<stop offset="1" stop-color="#C5FBF7"/>
</radialGradient>
<radialGradient id="paint6_radial_4502_10521" cx="0" cy="0" r="1" gradientUnits="userSpaceOnUse" gradientTransform="translate(29.0097 66.7153) scale(47.6711 47.452)">
<stop offset="0.48" stop-color="#7CD4D6"/>
<stop offset="1" stop-color="#ABEBE9"/>
</radialGradient>
<radialGradient id="paint7_radial_4502_10521" cx="0" cy="0" r="1" gradientUnits="userSpaceOnUse" gradientTransform="translate(43.3828 170.702) scale(128.786 128.194)">
<stop stop-color="#4DDBCA" stop-opacity="0.19"/>
<stop offset="1" stop-color="#4ADBDC" stop-opacity="0.48"/>
</radialGradient>
<radialGradient id="paint8_radial_4502_10521" cx="0" cy="0" r="1" gradientUnits="userSpaceOnUse" gradientTransform="translate(30.1878 75.3652) scale(101.293 100.828)">
<stop stop-color="#64DEDA"/>
<stop offset="1" stop-color="#9DE3E5" stop-opacity="0.17"/>
</radialGradient>
<clipPath id="clip0_4502_10521">
<rect width="115" height="132" fill="white"/>
</clipPath>
</defs>
</svg>
