<svg width="137" height="130" viewBox="0 0 137 130" fill="none" xmlns="http://www.w3.org/2000/svg">
<g clip-path="url(#clip0_4502_10573)">
<path d="M111.544 32.7168L111.348 97.4927L55.648 129.709L0.144531 97.1453L0.337073 32.3731L0.614776 32.2125L56.0368 0.15332L111.533 32.7168H111.544Z" fill="url(#paint0_linear_4502_10573)"/>
<path d="M111.517 32.7242L56.1023 64.7759L0.335938 32.373L56.0209 0.160645L111.517 32.7242Z" fill="url(#paint1_linear_4502_10573)"/>
<path d="M111.431 32.7091L83.9277 48.6379L56.25 32.5335L83.887 16.5264L111.431 32.7091Z" fill="url(#paint2_linear_4502_10573)"/>
<path d="M83.8884 16.5264L56.2699 32.5037L28.4219 16.1716L56.0588 0.160645L83.8884 16.5264Z" fill="url(#paint3_linear_4502_10573)"/>
<path d="M83.8678 48.7316L56.1049 64.7762L28.0273 48.3842L56.2493 32.4966L83.8678 48.7316Z" fill="url(#paint4_linear_4502_10573)"/>
<path d="M56.2705 32.5039L27.893 48.4327L0.507812 32.3284L28.4373 16.1157L56.2705 32.5039Z" fill="url(#paint5_linear_4502_10573)"/>
<path d="M56.1224 64.7685L55.6484 129.709L111.348 97.4927L111.533 32.7168L56.1224 64.7685Z" fill="url(#paint6_linear_4502_10573)"/>
<path d="M56.1428 64.761L55.8984 97.3395L83.765 81.1978L83.865 48.7314L56.1428 64.761Z" fill="url(#paint7_linear_4502_10573)"/>
<g opacity="0.71">
<path d="M83.8808 48.709L83.7734 81.2016L111.407 65.2168L111.533 32.7168L83.8808 48.709Z" fill="url(#paint8_linear_4502_10573)"/>
</g>
<g opacity="0.53">
<path d="M83.7756 81.2016L83.6719 113.47L111.35 97.4927L111.409 65.2168L83.7756 81.2016Z" fill="url(#paint9_linear_4502_10573)"/>
</g>
<g opacity="0.52">
<path d="M56.0283 97.2387L55.832 129.571L83.6986 113.429L83.7652 81.2017L56.0283 97.2387Z" fill="url(#paint10_linear_4502_10573)"/>
</g>
<g opacity="0.74">
<path d="M56.1019 64.776L55.8983 97.3395L27.8984 81.0148L27.9058 48.3354L56.1019 64.776Z" fill="url(#paint11_linear_4502_10573)"/>
</g>
<g opacity="0.71">
<path d="M27.9057 48.3354L27.8946 81.0147L0.253906 65.0038L0.335366 32.373L27.9057 48.3354Z" fill="url(#paint12_linear_4502_10573)"/>
</g>
<g opacity="0.53">
<path d="M27.8926 81.0186L27.9555 113.481L0.144531 97.1453L0.255613 65.0039L27.8926 81.0186Z" fill="url(#paint13_linear_4502_10573)"/>
</g>
<g opacity="0.52">
<path d="M55.8983 97.3392L55.6465 129.708L27.954 113.481L27.8984 81.022L55.8983 97.3392Z" fill="url(#paint14_linear_4502_10573)"/>
</g>
<path d="M45.619 66.431L45.5449 91.0339L24.384 103.276L3.30078 90.9031L3.37483 66.2965L3.47851 66.2368L24.5321 54.0586L45.6153 66.431H45.619Z" fill="url(#paint15_linear_4502_10573)"/>
<path d="M45.6133 66.431L24.5635 78.6054L3.47656 66.2368L24.5301 54.0586L45.6133 66.431Z" fill="url(#paint16_linear_4502_10573)"/>
<path d="M24.5642 78.6056L24.3828 103.276L45.5438 91.034L45.6141 66.4312L24.5642 78.6056Z" fill="url(#paint17_linear_4502_10573)"/>
<path d="M136.936 83.5962L136.862 108.203L115.704 120.441L94.6211 108.072L94.6952 83.4655L94.7988 83.4057L115.852 71.2275L136.932 83.5962H136.936Z" fill="url(#paint18_linear_4502_10573)"/>
<path d="M136.934 83.5962L115.884 95.7744L94.8008 83.4057L115.854 71.2275L136.934 83.5962Z" fill="url(#paint19_linear_4502_10573)"/>
<path d="M115.881 95.7744L115.703 120.441L136.86 108.203L136.931 83.5962L115.881 95.7744Z" fill="url(#paint20_linear_4502_10573)"/>
<path d="M56.2705 32.5039L27.893 48.4327L0.507812 32.3284L28.4373 16.1157L56.2705 32.5039Z" fill="url(#paint21_radial_4502_10573)"/>
</g>
<defs>
<linearGradient id="paint0_linear_4502_10573" x1="0.144531" y1="64.9329" x2="111.544" y2="64.9329" gradientUnits="userSpaceOnUse">
<stop stop-color="#A5ECE9"/>
<stop offset="1" stop-color="#C9FAF8"/>
</linearGradient>
<linearGradient id="paint1_linear_4502_10573" x1="0.335938" y1="32.4701" x2="111.517" y2="32.4701" gradientUnits="userSpaceOnUse">
<stop stop-color="#CDF9F8"/>
<stop offset="1" stop-color="#76BBC0"/>
</linearGradient>
<linearGradient id="paint2_linear_4502_10573" x1="109.102" y1="30.5425" x2="63.1504" y2="34.1983" gradientUnits="userSpaceOnUse">
<stop stop-color="#A4EDEA"/>
<stop offset="1" stop-color="#CAFAF8"/>
</linearGradient>
<linearGradient id="paint3_linear_4502_10573" x1="77.5197" y1="11.375" x2="41.7534" y2="19.5334" gradientUnits="userSpaceOnUse">
<stop stop-color="#3BCCCB"/>
<stop offset="1" stop-color="#7DDBDC"/>
</linearGradient>
<linearGradient id="paint4_linear_4502_10573" x1="38.5726" y1="56.7745" x2="89.4954" y2="33.6524" gradientUnits="userSpaceOnUse">
<stop stop-color="#78C6C9"/>
<stop offset="0.66" stop-color="#32E4D1"/>
<stop offset="1" stop-color="#13BDBF"/>
</linearGradient>
<linearGradient id="paint5_linear_4502_10573" x1="-44.3615" y1="27.1769" x2="69.658" y2="35.0499" gradientUnits="userSpaceOnUse">
<stop stop-color="#26D9CC"/>
<stop offset="0.66" stop-color="#57C9C7"/>
<stop offset="1" stop-color="#0495A6"/>
</linearGradient>
<linearGradient id="paint6_linear_4502_10573" x1="55.6484" y1="81.2128" x2="111.533" y2="81.2128" gradientUnits="userSpaceOnUse">
<stop stop-color="#2FE1D0"/>
<stop offset="1" stop-color="#CBFAF8"/>
</linearGradient>
<linearGradient id="paint7_linear_4502_10573" x1="119.455" y1="105.737" x2="45.3264" y2="57.6968" gradientUnits="userSpaceOnUse">
<stop stop-color="#44CFCE"/>
<stop offset="0.52" stop-color="#15BEBF"/>
<stop offset="1" stop-color="#0594A6"/>
</linearGradient>
<linearGradient id="paint8_linear_4502_10573" x1="89.8311" y1="73.3268" x2="107.414" y2="37.1457" gradientUnits="userSpaceOnUse">
<stop stop-color="#CBFAF8"/>
<stop offset="1" stop-color="white"/>
</linearGradient>
<linearGradient id="paint9_linear_4502_10573" x1="69.5201" y1="76.1398" x2="106.783" y2="93.3882" gradientUnits="userSpaceOnUse">
<stop stop-color="#BBEFED"/>
<stop offset="1" stop-color="#CBFAF8"/>
</linearGradient>
<linearGradient id="paint10_linear_4502_10573" x1="90.8855" y1="72.2623" x2="56.999" y2="124.636" gradientUnits="userSpaceOnUse">
<stop stop-color="#AFE9E8"/>
<stop offset="0.74" stop-color="#7ACED1"/>
<stop offset="1" stop-color="#59CCCA"/>
</linearGradient>
<linearGradient id="paint11_linear_4502_10573" x1="50.7545" y1="59.159" x2="33.5561" y2="82.1864" gradientUnits="userSpaceOnUse">
<stop stop-color="#80E7E7"/>
<stop offset="1" stop-color="#75B6BB"/>
</linearGradient>
<linearGradient id="paint12_linear_4502_10573" x1="22.6629" y1="43.1166" x2="5.53295" y2="65.7711" gradientUnits="userSpaceOnUse">
<stop stop-color="#A2F2F2"/>
<stop offset="1" stop-color="#75B6BB"/>
</linearGradient>
<linearGradient id="paint13_linear_4502_10573" x1="22.6826" y1="75.7111" x2="5.65355" y2="98.4386" gradientUnits="userSpaceOnUse">
<stop stop-color="#80E7E7"/>
<stop offset="1" stop-color="#75B6BB"/>
</linearGradient>
<linearGradient id="paint14_linear_4502_10573" x1="50.5895" y1="91.7754" x2="33.4989" y2="114.641" gradientUnits="userSpaceOnUse">
<stop stop-color="#80E7E7"/>
<stop offset="1" stop-color="#75B6BB"/>
</linearGradient>
<linearGradient id="paint15_linear_4502_10573" x1="35.9771" y1="93.4546" x2="7.59149" y2="57.6462" gradientUnits="userSpaceOnUse">
<stop stop-color="#42CFCD"/>
<stop offset="1" stop-color="#CAFAF8"/>
</linearGradient>
<linearGradient id="paint16_linear_4502_10573" x1="3.47656" y1="66.3301" x2="45.6133" y2="66.3301" gradientUnits="userSpaceOnUse">
<stop stop-color="#29C5C6"/>
<stop offset="1" stop-color="#A8EBE9"/>
</linearGradient>
<linearGradient id="paint17_linear_4502_10573" x1="84.2185" y1="126.007" x2="10.8061" y2="65.7026" gradientUnits="userSpaceOnUse">
<stop stop-color="#C5FBF7"/>
<stop offset="0.66" stop-color="#A6ECE9"/>
<stop offset="1" stop-color="#59CCCB"/>
</linearGradient>
<linearGradient id="paint18_linear_4502_10573" x1="127.297" y1="110.624" x2="98.9118" y2="74.8151" gradientUnits="userSpaceOnUse">
<stop stop-color="#BFECEB"/>
<stop offset="1" stop-color="#039CAA"/>
</linearGradient>
<linearGradient id="paint19_linear_4502_10573" x1="94.8008" y1="83.4991" x2="136.934" y2="83.4991" gradientUnits="userSpaceOnUse">
<stop stop-color="#3DEED7"/>
<stop offset="0.52" stop-color="#5ACFCD"/>
<stop offset="1" stop-color="#01AEB4"/>
</linearGradient>
<linearGradient id="paint20_linear_4502_10573" x1="175.539" y1="143.176" x2="102.126" y2="82.8677" gradientUnits="userSpaceOnUse">
<stop stop-color="#2EE1D0"/>
<stop offset="1" stop-color="white"/>
</linearGradient>
<radialGradient id="paint21_radial_4502_10573" cx="0" cy="0" r="1" gradientUnits="userSpaceOnUse" gradientTransform="translate(0.444867 23.6654) scale(43.3735 43.7592)">
<stop stop-color="#FFFCFD"/>
<stop offset="0.83" stop-color="#4780C2" stop-opacity="0"/>
</radialGradient>
<clipPath id="clip0_4502_10573">
<rect width="137" height="130" fill="white"/>
</clipPath>
</defs>
</svg>
