<svg width="117" height="135" viewBox="0 0 117 135" fill="none" xmlns="http://www.w3.org/2000/svg">
<g clip-path="url(#clip0_4502_10608)">
<path d="M116.711 33.9751L116.505 101.242L58.2262 134.698L0.152344 100.882L0.353802 33.6182L0.644365 33.4514L58.633 0.15918L116.699 33.9751H116.711Z" fill="url(#paint0_radial_4502_10608)"/>
<path d="M99.5611 43.8206L99.4178 91.2917L58.3632 114.893L17.3047 91.0396L17.448 43.5684L17.6534 43.4521L58.5762 19.9551L99.5534 43.8206H99.5611Z" fill="url(#paint1_radial_4502_10608)"/>
<path d="M116.699 33.9751L58.7222 67.2596L0.644531 33.4514L58.6331 0.15918L116.699 33.9751Z" fill="url(#paint2_radial_4502_10608)"/>
<path d="M58.7225 67.2596L58.2266 134.698L116.506 101.242L116.699 33.9751L58.7225 67.2596Z" fill="url(#paint3_radial_4502_10608)"/>
<path d="M58.7236 67.2596L58.3633 114.894L99.4179 91.2919L99.5612 43.8208L58.7236 67.2596Z" fill="url(#paint4_radial_4502_10608)"/>
</g>
<defs>
<radialGradient id="paint0_radial_4502_10608" cx="0" cy="0" r="1" gradientUnits="userSpaceOnUse" gradientTransform="translate(45.5886 43.6928) scale(88.5132 88.6306)">
<stop offset="0.08" stop-color="#5ACDCF"/>
<stop offset="0.23" stop-color="#75B6BB"/>
<stop offset="0.54" stop-color="#C5E3E6"/>
<stop offset="1" stop-color="#D8F8F9"/>
</radialGradient>
<radialGradient id="paint1_radial_4502_10608" cx="0" cy="0" r="1" gradientUnits="userSpaceOnUse" gradientTransform="translate(44.1101 41.2215) scale(70.231 70.3241)">
<stop offset="0.08" stop-color="#56C7C5"/>
<stop offset="0.23" stop-color="#61DBD8"/>
<stop offset="0.54" stop-color="#7AEAE2"/>
<stop offset="1" stop-color="#D8F8F9"/>
</radialGradient>
<radialGradient id="paint2_radial_4502_10608" cx="0" cy="0" r="1" gradientUnits="userSpaceOnUse" gradientTransform="translate(57.8587 -8.43157) rotate(177.807) scale(166.353 66.6294)">
<stop offset="0.08" stop-color="#52BCBD"/>
<stop offset="0.54" stop-color="#64DFDA"/>
<stop offset="1" stop-color="#83EFE8"/>
</radialGradient>
<radialGradient id="paint3_radial_4502_10608" cx="0" cy="0" r="1" gradientUnits="userSpaceOnUse" gradientTransform="translate(70.035 51.3583) scale(90.5045 90.6246)">
<stop offset="0.08" stop-color="#5ACCCF"/>
<stop offset="0.23" stop-color="#75B6BB"/>
<stop offset="0.54" stop-color="#B2DBDF"/>
<stop offset="1" stop-color="#D6FCFD"/>
</radialGradient>
<radialGradient id="paint4_radial_4502_10608" cx="0" cy="0" r="1" gradientUnits="userSpaceOnUse" gradientTransform="translate(95.4779 36.2755) scale(76.5614 76.6629)">
<stop offset="0.08" stop-color="#54C1C0"/>
<stop offset="0.23" stop-color="#5FD8D5"/>
<stop offset="0.54" stop-color="#89F0E8"/>
<stop offset="1" stop-color="#D8F8F9"/>
</radialGradient>
<clipPath id="clip0_4502_10608">
<rect width="117" height="135" fill="white"/>
</clipPath>
</defs>
</svg>
