<svg width="32" height="37" viewBox="0 0 32 37" fill="none" xmlns="http://www.w3.org/2000/svg">
<g id="Clip path group">
<mask id="mask0_8346_784" style="mask-type:luminance" maskUnits="userSpaceOnUse" x="0" y="0" width="32" height="37">
<g id="clippath">
<path id="Vector" d="M31.9999 0H0V37H31.9999V0Z" fill="white"/>
</g>
</mask>
<g mask="url(#mask0_8346_784)">
<g id="Group">
<g id="Group_2">
<path id="Vector_2" d="M10.6692 27.7532L5.32981 24.6646V18.497L0 15.416V27.7532L16.0009 37.0017V24.6646L10.6711 21.5856V27.7532H10.6692Z" fill="#89D1CD"/>
<path id="Vector_3" d="M16.0017 18.4951L10.6719 21.5837L16.0017 24.6627L21.3411 21.5837L16.0017 18.4951Z" fill="#9EB3CF"/>
<path id="Vector_4" d="M5.32981 12.3276L0 15.4162L5.32981 18.4953L10.6692 15.4162L5.32981 12.3276Z" fill="#9EB3CF"/>
<path id="Vector_5" d="M26.6697 12.3276L21.3398 15.4162L26.6697 18.4953L31.9995 15.4162L26.6697 12.3276Z" fill="#9EB3CF"/>
<path id="Vector_6" d="M16.0017 6.16748L10.6719 9.2465L16.0017 12.3351L21.3411 9.2465L16.0017 6.16748Z" fill="#9EB3CF"/>
<path id="Vector_7" d="M5.32812 18.495V24.6626L10.6675 27.7512V15.4141" fill="white"/>
<path id="Vector_8" d="M16 12.3371V18.5048L21.3394 21.5838V9.24854" fill="white"/>
<path id="Vector_9" d="M26.6697 18.5046V24.6722L21.3398 27.7512V15.4141" fill="#E0F2F4"/>
<path id="Vector_10" d="M16.0017 12.3371V18.5048L10.6719 21.5838V9.24854" fill="#E0F2F4"/>
<path id="Vector_11" d="M16.0009 0L0 9.24856L16.0009 18.5067L32.0019 9.24856L16.0009 0Z" fill="#DBD8EC"/>
<path id="Vector_12" d="M0 9.24854V15.4162L5.32981 18.5048V24.6724L10.6692 27.7514V21.5838L15.999 24.6724V18.5048L0 9.24854Z" fill="#F3EFE8"/>
<path id="Vector_13" d="M16.0019 18.5048V24.6724L21.3413 21.5838V27.7514L26.6711 24.6724V18.5048L32.0009 15.4162V9.24854L16 18.5067L16.0019 18.5048Z" fill="#B1DCBE"/>
<path id="Vector_14" d="M10.668 27.7536L15.9978 24.6745L10.668 21.5859V27.7536Z" fill="#89D1CD"/>
<path id="Vector_15" d="M26.6692 18.495V24.6626L21.3394 27.7512V21.5836L16 24.6626V36.9998L32.0009 27.7512V15.4141L26.6711 18.4931L26.6692 18.495Z" fill="#3188B2"/>
</g>
</g>
</g>
</g>
</svg>
